<?xml version="1.0" encoding="utf-8"?>
<!-- Generator: Adobe Illustrator 22.1.0, SVG Export Plug-In . SVG Version: 6.00 Build 0)  -->
<svg version="1.1" id="Layer_1" xmlns="http://www.w3.org/2000/svg" xmlns:xlink="http://www.w3.org/1999/xlink" x="0px" y="0px"
	 viewBox="0 0 696 402" style="enable-background:new 0 0 696 402;" xml:space="preserve">
<style type="text/css">
	.st0{fill:none;stroke:#000000;}
	.st1{fill:#F0F0F0;}
	.st2{font-family:'Arial-BoldMT';}
	.st3{font-size:12px;}
	.st4{fill:#FFFFFF;}
	.st5{font-family:'ArialMT';}
</style>
<desc>{&quot;leftTopX&quot;: 6668, &quot;leftTopY&quot;: 6618, &quot;rightBottomX&quot;: 7364, &quot;rightBottomY&quot;: 7074}
	</desc>
<g transform="translate(0.5,0.5)">
	<g>
		<polyline class="st0" points="548,55 352,55 352,160 233,160 		"/>
		<g>
			<line class="st0" x1="293" y1="160" x2="278" y2="154"/>
			<line class="st0" x1="293" y1="160" x2="278" y2="166"/>
			<line class="st0" x1="293" y1="154" x2="293" y2="166"/>
		</g>
		<g>
			<line class="st0" x1="387" y1="49" x2="387" y2="61"/>
		</g>
	</g>
	<g>
		<line class="st0" x1="504" y1="117" x2="504" y2="323"/>
		<g>
			<line class="st0" x1="498" y1="263" x2="510" y2="263"/>
		</g>
		<g>
			<line class="st0" x1="498" y1="180" x2="510" y2="180"/>
		</g>
	</g>
	<g transform="translate(36.0,29.0)">
		<g transform="translate(0.0,0.0)">
			<rect class="st1" width="242" height="20"/>
		</g>
		<g transform="translate(0.0,0.0)">
			<text transform="matrix(1 0 0 1 108.7695 14.1906)" class="st2 st3">Task</text>
		</g>
		<g transform="translate(0.0,20.0)">
			<rect class="st4" width="242" height="154"/>
			<g transform="translate(4.0,3.0)">
				<g transform="translate(0.0,0.0)">
					<text transform="matrix(1 0 0 1 1 11.1387)" class="st5 st3">task_id</text>
				</g>
				<g transform="translate(0.0,14.0)">
					<text transform="matrix(1 0 0 1 1 11.1387)" class="st5 st3">task_name</text>
				</g>
				<g transform="translate(0.0,28.0)">
					<text transform="matrix(1 0 0 1 1 11.1387)" class="st5 st3">task_description</text>
				</g>
				<g transform="translate(0.0,42.0)">
					<text transform="matrix(1 0 0 1 1 11.1387)" class="st5 st3">score</text>
				</g>
				<g transform="translate(0.0,56.0)">
					<text transform="matrix(1 0 0 1 1 11.1387)" class="st5 st3">created_date</text>
				</g>
				<g transform="translate(0.0,70.0)">
					<text transform="matrix(1 0 0 1 1 11.1387)" class="st5 st3">approved</text>
				</g>
				<g transform="translate(0.0,84.0)">
					<text transform="matrix(1 0 0 1 1 11.1387)" class="st5 st3">is_completed</text>
				</g>
				<g transform="translate(0.0,98.0)">
					<text transform="matrix(1 0 0 1 1 11.1387)" class="st5 st3">user_id</text>
				</g>
				<g transform="translate(0.0,98.0)">
					<text transform="matrix(1 0 0 1 1 25.1387)" class="st5 st3">available</text>
				</g>
			</g>
			<g transform="translate(140.5,3.0)">
				<g transform="translate(0.0,0.0)">
					<text transform="matrix(1 0 0 1 1 11.1387)" class="st5 st3">int</text>
				</g>
				<g transform="translate(0.0,14.0)">
					<text transform="matrix(1 0 0 1 1 11.1387)" class="st5 st3">varchar(255)</text>
				</g>
				<g transform="translate(0.0,28.0)">
					<text transform="matrix(1 0 0 1 1 11.1387)" class="st5 st3">varchar(255)</text>
				</g>
				<g transform="translate(0.0,42.0)">
					<text transform="matrix(1 0 0 1 1 11.1387)" class="st5 st3">int</text>
				</g>
				<g transform="translate(0.0,56.0)">
					<text transform="matrix(1 0 0 1 1 11.1387)" class="st5 st3">date</text>
				</g>
				<g transform="translate(0.0,70.0)">
					<text transform="matrix(1 0 0 1 1 11.1387)" class="st5 st3">bool</text>
				</g>
				<g transform="translate(0.0,84.0)">
					<text transform="matrix(1 0 0 1 1 11.1387)" class="st5 st3">bool</text>
				</g>
				<g transform="translate(0.0,98.0)">
					<text transform="matrix(1 0 0 1 1 11.1387)" class="st5 st3">int</text>
				</g>
				<g transform="translate(0.0,98.0)">
					<text transform="matrix(1 0 0 1 1 25.1387)" class="st5 st3">bool</text>
				</g>
			</g>
			<g transform="translate(222.75,3.0)">
				<g transform="translate(0.0,0.0)">
					<text transform="matrix(1 0 0 1 1 11.1387)" class="st5 st3">PK</text>
				</g>
				<g transform="translate(0.0,14.0)">
				</g>
				<g transform="translate(0.0,28.0)">
				</g>
				<g transform="translate(0.0,42.0)">
				</g>
				<g transform="translate(0.0,56.0)">
				</g>
				<g transform="translate(0.0,70.0)">
				</g>
				<g transform="translate(0.0,84.0)">
				</g>
				<g transform="translate(0.0,98.0)">
					<text transform="matrix(1 0 0 1 1 11.1387)" class="st5 st3">FK</text>
				</g>
			</g>
		</g>
		<polyline class="st0" points="0,20 0,0 242,0 242,20 0,20 0,174 242,174 242,20 		"/>
	</g>
	<g transform="translate(402.0,20.0)">
		<g transform="translate(0.0,0.0)">
			<rect class="st1" width="270" height="20"/>
		</g>
		<g transform="translate(0.0,0.0)">
			<text transform="matrix(1 0 0 1 122.6582 14.1906)" class="st2 st3">User</text>
		</g>
		<g transform="translate(0.0,20.0)">
			<rect class="st4" width="270" height="125"/>
			<g transform="translate(4.0,3.0)">
				<g transform="translate(0.0,0.0)">
					<text transform="matrix(1 0 0 1 1 11.1387)" class="st5 st3">user_id</text>
				</g>
				<g transform="translate(0.0,14.0)">
					<text transform="matrix(1 0 0 1 1 11.1387)" class="st5 st3">username</text>
				</g>
				<g transform="translate(0.0,28.0)">
					<text transform="matrix(1 0 0 1 1 11.1387)" class="st5 st3">full_name</text>
				</g>
				<g transform="translate(0.0,42.0)">
					<text transform="matrix(1 0 0 1 1 11.1387)" class="st5 st3">sum_score</text>
				</g>
				<g transform="translate(0.0,56.0)">
					<text transform="matrix(1 0 0 1 1 11.1387)" class="st5 st3">password</text>
				</g>
				<g transform="translate(0.0,70.0)">
					<text transform="matrix(1 0 0 1 1 11.1387)" class="st5 st3">last_login</text>
				</g>
				<g transform="translate(0.0,84.0)">
					<text transform="matrix(1 0 0 1 1 11.1387)" class="st5 st3">role</text>
				</g>
				<g transform="translate(0.0,98.0)">
					<text transform="matrix(1 0 0 1 1 11.1387)" class="st5 st3">actual_score</text>
				</g>
			</g>
			<g transform="translate(168.5,3.0)">
				<g transform="translate(0.0,0.0)">
					<text transform="matrix(1 0 0 1 1 11.1387)" class="st5 st3">int</text>
				</g>
				<g transform="translate(0.0,14.0)">
					<text transform="matrix(1 0 0 1 1 11.1387)" class="st5 st3">varchar(255)</text>
				</g>
				<g transform="translate(0.0,28.0)">
					<text transform="matrix(1 0 0 1 1 11.1387)" class="st5 st3">varchar(255)</text>
				</g>
				<g transform="translate(0.0,42.0)">
					<text transform="matrix(1 0 0 1 1 11.1387)" class="st5 st3">int</text>
				</g>
				<g transform="translate(0.0,56.0)">
					<text transform="matrix(1 0 0 1 1 11.1387)" class="st5 st3">varchar(255)</text>
				</g>
				<g transform="translate(0.0,70.0)">
					<text transform="matrix(1 0 0 1 1 11.1387)" class="st5 st3">date</text>
				</g>
				<g transform="translate(0.0,84.0)">
					<text transform="matrix(1 0 0 1 1 11.1387)" class="st5 st3">enum</text>
				</g>
				<g transform="translate(0.0,98.0)">
					<text transform="matrix(1 0 0 1 1 11.1387)" class="st5 st3">int</text>
				</g>
			</g>
			<g transform="translate(250.75,3.0)">
				<g transform="translate(0.0,0.0)">
					<text transform="matrix(1 0 0 1 1 11.1387)" class="st5 st3">PK</text>
				</g>
				<g transform="translate(0.0,14.0)">
				</g>
				<g transform="translate(0.0,28.0)">
				</g>
				<g transform="translate(0.0,42.0)">
				</g>
				<g transform="translate(0.0,56.0)">
				</g>
				<g transform="translate(0.0,70.0)">
				</g>
				<g transform="translate(0.0,84.0)">
				</g>
				<g transform="translate(0.0,98.0)">
				</g>
			</g>
		</g>
		<polyline class="st0" points="0,20 0,0 270,0 270,20 0,20 0,145 270,145 270,20 		"/>
	</g>
	<g transform="translate(405.0,278.0)">
		<g transform="translate(0.0,0.0)">
			<rect class="st1" width="271" height="20"/>
		</g>
		<g transform="translate(0.0,0.0)">
			<text transform="matrix(1 0 0 1 119.502 14.1906)" class="st2 st3">Room</text>
		</g>
		<g transform="translate(0.0,20.0)">
			<rect class="st4" width="271" height="66"/>
			<g transform="translate(4.0,3.0)">
				<g transform="translate(0.0,0.0)">
					<text transform="matrix(1 0 0 1 1 11.1387)" class="st5 st3">room_id</text>
				</g>
				<g transform="translate(0.0,14.0)">
					<text transform="matrix(1 0 0 1 1 11.1387)" class="st5 st3">room_name</text>
				</g>
				<g transform="translate(0.0,28.0)">
					<text transform="matrix(1 0 0 1 1 11.1387)" class="st5 st3">user_id</text>
				</g>
				<g transform="translate(0.0,28.0)">
					<text transform="matrix(1 0 0 1 0.75 24.8887)" class="st5 st3">reserved</text>
				</g>
			</g>
			<g transform="translate(169.5,3.0)">
				<g transform="translate(0.0,0.0)">
					<text transform="matrix(1 0 0 1 1 11.1387)" class="st5 st3">int</text>
				</g>
				<g transform="translate(0.0,14.0)">
					<text transform="matrix(1 0 0 1 1 11.1387)" class="st5 st3">varchar(255)</text>
				</g>
				<g transform="translate(0.0,28.0)">
					<text transform="matrix(1 0 0 1 1 11.1387)" class="st5 st3">int</text>
				</g>
				<g transform="translate(0.0,28.0)">
					<text transform="matrix(0.8285 0 0 1 1 24.8887)" class="st5 st3">bool</text>
				</g>
			</g>
			<g transform="translate(251.75,3.0)">
				<g transform="translate(0.0,0.0)">
					<text transform="matrix(1 0 0 1 1 11.1387)" class="st5 st3">PK</text>
				</g>
				<g transform="translate(0.0,14.0)">
				</g>
				<g transform="translate(0.0,28.0)">
					<text transform="matrix(1 0 0 1 1 11.1387)" class="st5 st3">FK</text>
				</g>
			</g>
		</g>
		<polyline class="st0" points="0,20 0,0 271,0 271,20 0,20 0,86 271,86 271,20 		"/>
	</g>
</g>
</svg>
